# xmcd CD database file
#
# Track frame offsets:
#	150
#	22915
#	64605
#	106112
#	128627
#
# Disc length: 2042 seconds
#
# Revision: 1
# Processed by: cddbd v1.5PL3 Copyright (c) Steve Scherf et al.
# Submitted via: CDex 1.40Release
#
DISCID=3107f805
DTITLE=ECD - SUMMER MADNESS/LIVE AT SLITS
DYEAR=1995
DGENRE=ヒップ ホップ (一般)
TTITLE0=SUMMER MADNESS Barbecue Mix
TTITLE1=MEDLEY '89 to '93
TTITLE2=FxxK TOMORROW
TTITLE3=MASS 対 CORE
TTITLE4=SUMMER MADNESS Illcit Tsuboi Remix
EXTD=YEAR: 1995
EXTT0=
EXTT1=
EXTT2=
EXTT3=
EXTT4=
PLAYORDER=
